<svg width="326" height="86" viewBox="0 0 326 86" fill="none" xmlns="http://www.w3.org/2000/svg">
<path d="M26.9277 74.1177C25.5221 74.5161 24.0059 74.7983 22.3789 74.9644C20.752 75.1414 18.8815 75.23 16.7676 75.23C14.6536 75.23 12.3405 75.0363 9.82812 74.6489C7.31576 74.2726 4.9528 73.7192 2.73926 72.9888C2.78353 72.8006 3.32031 70.7254 4.34961 66.7632C4.34961 66.6857 4.39388 66.647 4.48242 66.647C6.47461 67.145 8.00195 67.5103 9.06445 67.7427C11.8867 68.3625 14.9027 68.6724 18.1123 68.6724C19.8721 68.6724 20.752 68.368 20.752 67.7593C20.752 67.4826 20.6634 67.2889 20.4863 67.1782C20.3092 67.0565 19.9993 66.9624 19.5566 66.896C19.1139 66.8296 18.4001 66.7244 17.415 66.5806C16.43 66.4256 15.6774 66.3039 15.1572 66.2153C14.637 66.1268 13.9066 65.9995 12.9658 65.8335C12.0251 65.6675 11.3057 65.5181 10.8076 65.3853C10.3206 65.2524 9.68978 65.0809 8.91504 64.8706C8.15137 64.6493 7.55924 64.4279 7.13867 64.2065C6.7181 63.9852 6.23112 63.7196 5.67773 63.4097C5.12435 63.0998 4.70378 62.7677 4.41602 62.4136C4.10612 62.0594 3.80729 61.661 3.51953 61.2183C2.98828 60.4103 2.72266 59.4198 2.72266 58.2466C2.72266 55.1919 4.12826 53.0392 6.93945 51.7886C9.75065 50.5269 13.9232 49.896 19.457 49.896C21.737 49.896 24.0612 50.134 26.4297 50.6099C28.8092 51.0858 30.5524 51.5949 31.6592 52.1372C31.0394 54.4836 30.4915 56.3761 30.0156 57.8149C28.6986 57.4497 26.7949 57.09 24.3047 56.7358C21.8145 56.3706 19.6009 56.188 17.6641 56.188C15.7383 56.188 14.7754 56.4979 14.7754 57.1177C14.7754 57.4718 15.0189 57.7375 15.5059 57.9146C16.0039 58.0806 17.1826 58.3185 19.042 58.6284C20.9124 58.9272 22.1686 59.132 22.8105 59.2427C27.5918 60.0617 30.6576 61.2681 32.0078 62.8618C33.0039 64.0461 33.502 65.3188 33.502 66.6802C33.513 68.0415 33.2474 69.2036 32.7051 70.1665C32.1738 71.1294 31.4323 71.9263 30.4805 72.5571C29.5286 73.188 28.3444 73.7082 26.9277 74.1177ZM57.5 68.4897C59.4479 68.4897 60.9365 67.964 61.9658 66.9126C63.0062 65.8612 63.5263 64.3062 63.5263 62.2476C63.5263 60.1779 63.0006 58.7502 61.9492 57.9644C60.8978 57.1785 59.4479 56.7856 57.5996 56.7856C55.7513 56.7856 54.2848 57.3003 53.2002 58.3296C52.1266 59.3478 51.5898 60.8309 51.5898 62.7788C51.5898 66.5861 53.5599 68.4897 57.5 68.4897ZM38.292 63.0444C38.292 58.8166 40.0019 55.5682 43.4219 53.2993C46.8528 51.0304 51.6009 49.896 57.666 49.896C63.7311 49.896 68.4183 50.9474 71.7275 53.0503C75.0368 55.1532 76.6914 58.1304 76.6914 61.9819C76.6914 66.1545 74.9372 69.4084 71.4287 71.7437C67.9202 74.0679 63.1279 75.23 57.0517 75.23C50.9756 75.23 46.3271 74.1509 43.1064 71.9927C39.8968 69.8234 38.292 66.8407 38.292 63.0444ZM81.3818 62.7954C81.3818 58.8996 82.9202 55.8836 85.997 53.7476C89.6826 51.1799 94.8401 49.896 101.47 49.896C102.621 49.896 103.689 49.9513 104.674 50.062V57.9312C103.224 57.7319 101.652 57.6323 99.9589 57.6323C98.2766 57.6323 96.8876 58.0363 95.7919 58.8442C94.7073 59.6522 94.165 60.936 94.165 62.6958C94.165 66.4146 96.1516 68.2739 100.125 68.2739C101.132 68.2739 102.648 68.0802 104.674 67.6929V74.981C103.169 75.147 101.63 75.23 100.059 75.23C91.9238 75.23 86.3623 73.2821 83.374 69.3862C82.0459 67.6597 81.3818 65.4627 81.3818 62.7954ZM122.015 50.4604L124.903 50.4272C124.948 50.7039 124.97 50.9972 124.97 51.3071L124.887 53.5317L124.438 74.3169L121.268 74.3999C121.268 74.3999 118.373 74.4276 112.585 74.4829C112.552 74.1619 112.535 73.7524 112.535 73.2544C112.535 73.2544 112.723 65.7284 113.1 50.6763C115.546 50.5324 118.517 50.4604 122.015 50.4604ZM148.851 65.5181C147.645 61.6333 146.854 58.9715 146.477 57.5327C145.858 59.4806 145.243 61.2404 144.635 62.812C144.026 64.3836 143.677 65.2856 143.589 65.5181H148.851ZM141.099 71.6108L139.853 74.7319C139.289 74.8094 138.73 74.8481 138.177 74.8481C137.623 74.8481 134.79 74.7264 129.677 74.4829C130.949 71.8156 134.491 63.9022 140.302 50.7427C140.999 50.7205 142.554 50.6597 144.967 50.5601C147.391 50.4494 149.499 50.394 151.292 50.394C153.085 50.394 154.319 50.5047 154.994 50.7261C155.06 50.9474 157.966 57.7319 163.71 71.0796L165.104 74.3335C158.065 74.7651 154.474 74.981 154.33 74.981C154.197 74.981 153.483 74.9478 152.188 74.8813C151.69 73.9849 151.264 72.939 150.91 71.7437C150.202 71.6551 146.931 71.6108 141.099 71.6108ZM197.021 74.5825H173.663C171.815 74.5825 170.409 74.5493 169.446 74.4829L169.513 70.4487L169.645 65.02C169.668 64.7101 169.762 62.5685 169.928 58.5952C170.105 54.6108 170.238 51.9657 170.326 50.6597C171.997 50.4715 174.067 50.3774 176.535 50.3774C179.014 50.3774 181.062 50.3885 182.678 50.4106L182.296 58.7114C182.274 59.8071 182.135 63.0721 181.881 68.5063L194.681 68.2075C195.964 68.2075 197.01 68.2684 197.818 68.3901C197.818 69.0985 197.73 70.0226 197.553 71.1626L197.021 74.5825ZM212.719 50.4604L215.607 50.4272C215.652 50.7039 215.674 50.9972 215.674 51.3071L215.591 53.5317L215.142 74.3169L211.972 74.3999C211.972 74.3999 209.077 74.4276 203.289 74.4829C203.256 74.1619 203.239 73.7524 203.239 73.2544C203.239 73.2544 203.427 65.7284 203.804 50.6763C206.25 50.5324 209.221 50.4604 212.719 50.4604ZM249.384 74.4331L242.129 74.4829H225.195C223.79 74.4829 222.683 74.4552 221.875 74.3999V73.5034L233.795 57.9478C227.398 57.8813 223.452 57.7983 221.958 57.6987L222.871 50.5269C224.642 50.4494 226.889 50.4106 229.611 50.4106C232.334 50.4106 235.864 50.4383 240.203 50.4937C244.541 50.549 247.801 50.5767 249.981 50.5767C249.483 51.5174 247.928 54.0353 245.316 58.1304C242.715 62.2144 240.601 65.341 238.974 67.5103H244.005L247.956 67.4106C249.14 67.4106 249.987 67.4162 250.496 67.4272C250.496 67.7703 250.341 68.8937 250.031 70.7974C249.721 72.6899 249.505 73.9019 249.384 74.4331ZM284.97 74.6323H274.394L255.419 74.4995L255.701 68.6558C256.265 56.9351 256.548 50.9253 256.548 50.6265C257.876 50.5711 258.745 50.5435 259.154 50.5435H275.955C279.685 50.5435 282.701 50.5213 285.003 50.4771L284.322 56.7358C281.644 56.9793 276.309 57.1011 268.318 57.1011C268.285 57.3667 268.246 57.8149 268.202 58.4458C268.169 59.0767 268.141 59.5526 268.119 59.8735C271.306 59.8182 273.531 59.7905 274.793 59.7905L278.445 59.8901C278.445 60.3771 278.368 61.2183 278.213 62.4136C278.069 63.6089 277.908 64.533 277.731 65.186C277.554 65.2303 276.176 65.2524 273.597 65.2524H267.903L267.721 68.4897L285.152 68.689C285.152 70.7808 285.119 72.2749 285.053 73.1714C284.997 74.0568 284.97 74.5438 284.97 74.6323Z" fill="#FFD872"/>
<path d="M290.505 11.982C290.151 12.2515 289.194 14.6875 288.024 18.2966C284.041 30.6382 283.54 30.2762 284.132 30.884C284.766 31.5345 284.987 31.0523 287.852 23.1069C290.921 14.5863 291.771 11.0534 290.505 11.982Z" fill="white"/>
<path d="M277.535 26.8557C277.282 26.9245 277.218 27.1365 277.044 28.2209C276.794 29.8336 277.405 31.2445 278.018 30.4839C278.511 29.853 278.099 26.7024 277.535 26.8557Z" fill="white"/>
<path d="M272.608 29.9397C270.383 23.6225 269.441 21.6468 268.589 21.6302C267.899 21.6022 267.909 22.117 268.63 23.6892C269.261 25.0166 270.266 27.6113 271.182 30.241C271.933 32.3981 272.182 32.8049 272.753 32.9623C273.554 33.1543 273.514 32.5076 272.608 29.9397Z" fill="white"/>
<path d="M299.764 15.3418C299.421 15.5976 297.299 19.1977 296.099 21.5394C295.811 22.1054 294.989 23.5425 294.284 24.7202C292.903 27.0028 292.855 27.1567 293.331 27.6451C293.782 28.1078 293.76 28.1354 295.944 24.1933C299.75 17.3288 301.001 14.4314 299.764 15.3418Z" fill="white"/>
<path d="M278.258 19.8794C278.119 21.506 277.639 22.5551 278.256 23.1875C279.246 24.2044 279.377 24.1364 279.788 20.9443C280.552 15.0301 280.504 10.3306 279.675 10.3396C278.872 10.3742 279.116 13.734 278.258 19.8794Z" fill="white"/>
<path d="M310.681 47.6395C312.027 47.4033 313.18 46.9172 313.581 46.4189C314.138 45.7269 313.789 44.9891 312.913 45.0759C307.108 45.6155 299.943 47.7681 299.866 48.9783C299.792 50.1662 300.707 50.1445 305.676 48.8482C307.863 48.2863 310.113 47.7396 310.681 47.6395Z" fill="white"/>
<path d="M308.102 24.6123C306.715 25.748 303.787 28.7759 297.122 34.6838C295.796 35.857 295.773 35.8846 295.705 36.5751C295.654 37.1308 295.971 37.6843 296.359 37.6765C296.679 37.6761 305.897 29.3949 308.925 26.3938C310.092 25.2096 309.691 23.3027 308.102 24.6123Z" fill="white"/>
<path d="M309.757 57.2432C306.285 55.8242 299.201 54.1787 298.376 54.6186C297.804 54.9143 298.165 56.1429 298.897 56.3646L301.641 57.1618C305.859 58.3886 311.368 59.5021 311.624 59.1844C312.138 58.5268 311.631 58.0067 309.757 57.2432Z" fill="white"/>
<path d="M312.186 33.6557C311.72 33.912 310.414 34.57 306.753 36.2032C305.099 36.9343 301.9 38.7125 301.632 39.045C301.097 39.71 304.083 38.5739 309.721 35.9595C310.941 35.3898 312.106 34.8894 312.317 34.8535C313.314 34.6367 313.055 33.1814 312.186 33.6557Z" fill="white"/>
</svg>
